solid CATIA STL
  facet normal  9.238799e-001 -3.826826e-001  0.000000e+000
    outer loop
      vertex  5.676777e+001 -2.176777e+001 -1.700000e+001
      vertex  5.750000e+001 -2.000000e+001 -1.700000e+001
      vertex  5.750000e+001 -2.000000e+001  2.500000e+000
    endloop
  endfacet
  facet normal  9.895564e-001 -1.420876e-001 -2.427724e-002
    outer loop
      vertex  5.676777e+001 -2.176777e+001 -1.700000e+001
      vertex  5.750000e+001 -2.000000e+001  2.500000e+000
      vertex  5.736256e+001 -2.081751e+001  1.682493e+000
    endloop
  endfacet
  facet normal  8.362941e-001 -5.482798e-001  1.262571e-003
    outer loop
      vertex  5.676777e+001 -2.176777e+001 -1.700000e+001
      vertex  5.736256e+001 -2.081751e+001  1.682493e+000
      vertex  5.669572e+001 -2.183699e+001  6.630094e-001
    endloop
  endfacet
  facet normal  5.705991e-001 -8.212284e-001 -8.910461e-004
    outer loop
      vertex  5.676777e+001 -2.176777e+001 -1.700000e+001
      vertex  5.669572e+001 -2.183699e+001  6.630094e-001
      vertex  5.612782e+001 -2.223115e+001  2.688539e-001
    endloop
  endfacet
  facet normal  2.357593e-001 -9.716568e-001 -1.733595e-002
    outer loop
      vertex  5.676777e+001 -2.176777e+001 -1.700000e+001
      vertex  5.612782e+001 -2.223115e+001  2.688539e-001
      vertex  5.500000e+001 -2.250000e+001  0.000000e+000
    endloop
  endfacet
  facet normal  3.826831e-001 -9.238797e-001  0.000000e+000
    outer loop
      vertex  5.676777e+001 -2.176777e+001 -1.700000e+001
      vertex  5.500000e+001 -2.250000e+001  0.000000e+000
      vertex  5.500000e+001 -2.250000e+001 -1.700000e+001
    endloop
  endfacet
  facet normal  0.000000e+000  0.000000e+000  1.000000e+000
    outer loop
      vertex  5.750000e+001 -2.725000e+001  2.500000e+000
      vertex  5.750000e+001 -2.000000e+001  2.500000e+000
      vertex  5.363137e+001 -2.499363e+001  2.500000e+000
    endloop
  endfacet
  facet normal  0.000000e+000  0.000000e+000  1.000000e+000
    outer loop
      vertex  5.750000e+001 -2.725000e+001  2.500000e+000
      vertex  5.363137e+001 -2.499363e+001  2.500000e+000
      vertex  5.410000e+001 -2.612500e+001  2.500000e+000
    endloop
  endfacet
  facet normal  0.000000e+000  0.000000e+000  1.000000e+000
    outer loop
      vertex  5.750000e+001 -2.725000e+001  2.500000e+000
      vertex  5.410000e+001 -2.612500e+001  2.500000e+000
      vertex  5.363137e+001 -2.725637e+001  2.500000e+000
    endloop
  endfacet
  facet normal  -0.000000e+000  0.000000e+000  1.000000e+000
    outer loop
      vertex  5.750000e+001 -2.725000e+001  2.500000e+000
      vertex  5.363137e+001 -2.725637e+001  2.500000e+000
      vertex  5.250000e+001 -2.772500e+001  2.500000e+000
    endloop
  endfacet
  facet normal  -0.000000e+000  0.000000e+000  1.000000e+000
    outer loop
      vertex  5.750000e+001 -2.725000e+001  2.500000e+000
      vertex  5.250000e+001 -2.772500e+001  2.500000e+000
      vertex  5.702901e+001 -2.871053e+001  2.500000e+000
    endloop
  endfacet
  facet normal  0.000000e+000  0.000000e+000  1.000000e+000
    outer loop
      vertex -5.750000e+001 -2.000000e+001  2.500000e+000
      vertex -5.750000e+001 -2.975000e+001  2.500000e+000
      vertex -5.363137e+001 -2.499363e+001  2.500000e+000
    endloop
  endfacet
  facet normal  0.000000e+000  -0.000000e+000  1.000000e+000
    outer loop
      vertex -5.750000e+001 -2.000000e+001  2.500000e+000
      vertex -5.363137e+001 -2.499363e+001  2.500000e+000
      vertex -5.250000e+001 -2.452500e+001  2.500000e+000
    endloop
  endfacet
  facet normal  0.000000e+000  -0.000000e+000  1.000000e+000
    outer loop
      vertex -5.750000e+001 -2.000000e+001  2.500000e+000
      vertex -5.250000e+001 -2.452500e+001  2.500000e+000
      vertex  5.250000e+001 -2.452500e+001  2.500000e+000
    endloop
  endfacet
  facet normal  0.000000e+000  -0.000000e+000  1.000000e+000
    outer loop
      vertex -5.750000e+001 -2.000000e+001  2.500000e+000
      vertex  5.250000e+001 -2.452500e+001  2.500000e+000
      vertex  5.500000e+001 -2.000000e+001  2.500000e+000
    endloop
  endfacet
  facet normal  0.000000e+000  0.000000e+000  1.000000e+000
    outer loop
      vertex -5.750000e+001  2.975000e+001  2.500000e+000
      vertex -5.750000e+001  2.000000e+001  2.500000e+000
      vertex -5.363137e+001  2.725637e+001  2.500000e+000
    endloop
  endfacet
  facet normal  0.000000e+000  -0.000000e+000  1.000000e+000
    outer loop
      vertex -5.750000e+001  2.975000e+001  2.500000e+000
      vertex -5.363137e+001  2.725637e+001  2.500000e+000
      vertex -5.250000e+001  2.772500e+001  2.500000e+000
    endloop
  endfacet
  facet normal  0.000000e+000  -0.000000e+000  9.999999e-001
    outer loop
      vertex -5.750000e+001  2.975000e+001  2.500000e+000
      vertex -5.250000e+001  2.772500e+001  2.500000e+000
      vertex  5.250000e+001  2.772500e+001  2.500000e+000
    endloop
  endfacet
  facet normal  0.000000e+000  -0.000000e+000  1.000000e+000
    outer loop
      vertex -5.750000e+001  2.975000e+001  2.500000e+000
      vertex  5.250000e+001  2.772500e+001  2.500000e+000
      vertex  5.500000e+001  2.975000e+001  2.500000e+000
    endloop
  endfacet
  facet normal  0.000000e+000  0.000000e+000  1.000000e+000
    outer loop
      vertex -5.750000e+001  2.000000e+001  2.500000e+000
      vertex  5.500000e+001  2.000000e+001  2.500000e+000
      vertex  5.250000e+001  2.452500e+001  2.500000e+000
    endloop
  endfacet
  facet normal  0.000000e+000  0.000000e+000  1.000000e+000
    outer loop
      vertex -5.750000e+001  2.000000e+001  2.500000e+000
      vertex  5.250000e+001  2.452500e+001  2.500000e+000
      vertex -5.250000e+001  2.452500e+001  2.500000e+000
    endloop
  endfacet
  facet normal  0.000000e+000  0.000000e+000  1.000000e+000
    outer loop
      vertex -5.750000e+001  2.000000e+001  2.500000e+000
      vertex -5.250000e+001  2.452500e+001  2.500000e+000
      vertex -5.363137e+001  2.499363e+001  2.500000e+000
    endloop
  endfacet
  facet normal  0.000000e+000  0.000000e+000  1.000000e+000
    outer loop
      vertex -5.750000e+001  2.000000e+001  2.500000e+000
      vertex -5.363137e+001  2.499363e+001  2.500000e+000
      vertex -5.410000e+001  2.612500e+001  2.500000e+000
    endloop
  endfacet
  facet normal  0.000000e+000  -0.000000e+000  1.000000e+000
    outer loop
      vertex -5.750000e+001  2.000000e+001  2.500000e+000
      vertex -5.410000e+001  2.612500e+001  2.500000e+000
      vertex -5.363137e+001  2.725637e+001  2.500000e+000
    endloop
  endfacet
  facet normal  0.000000e+000  0.000000e+000  1.000000e+000
    outer loop
      vertex -5.750000e+001 -2.975000e+001  2.500000e+000
      vertex -5.250000e+001 -2.772500e+001  2.500000e+000
      vertex -5.363137e+001 -2.725637e+001  2.500000e+000
    endloop
  endfacet
  facet normal  0.000000e+000  0.000000e+000  1.000000e+000
    outer loop
      vertex -5.750000e+001 -2.975000e+001  2.500000e+000
      vertex -5.363137e+001 -2.725637e+001  2.500000e+000
      vertex -5.410000e+001 -2.612500e+001  2.500000e+000
    endloop
  endfacet
  facet normal  0.000000e+000  -0.000000e+000  1.000000e+000
    outer loop
      vertex -5.750000e+001 -2.975000e+001  2.500000e+000
      vertex -5.410000e+001 -2.612500e+001  2.500000e+000
      vertex -5.363137e+001 -2.499363e+001  2.500000e+000
    endloop
  endfacet
  facet normal  0.000000e+000  0.000000e+000  1.000000e+000
    outer loop
      vertex  5.750000e+001  2.000000e+001  2.500000e+000
      vertex  5.750000e+001  2.725000e+001  2.500000e+000
      vertex  5.363137e+001  2.725637e+001  2.500000e+000
    endloop
  endfacet
  facet normal  0.000000e+000  0.000000e+000  1.000000e+000
    outer loop
      vertex  5.750000e+001  2.000000e+001  2.500000e+000
      vertex  5.363137e+001  2.725637e+001  2.500000e+000
      vertex  5.410000e+001  2.612500e+001  2.500000e+000
    endloop
  endfacet
  facet normal  0.000000e+000  0.000000e+000  1.000000e+000
    outer loop
      vertex  5.750000e+001  2.000000e+001  2.500000e+000
      vertex  5.410000e+001  2.612500e+001  2.500000e+000
      vertex  5.363137e+001  2.499363e+001  2.500000e+000
    endloop
  endfacet
  facet normal  0.000000e+000  0.000000e+000  1.000000e+000
    outer loop
      vertex  5.750000e+001  2.000000e+001  2.500000e+000
      vertex  5.363137e+001  2.499363e+001  2.500000e+000
      vertex  5.250000e+001  2.452500e+001  2.500000e+000
    endloop
  endfacet
  facet normal  0.000000e+000  0.000000e+000  1.000000e+000
    outer loop
      vertex  5.750000e+001  2.000000e+001  2.500000e+000
      vertex  5.250000e+001  2.452500e+001  2.500000e+000
      vertex  5.500000e+001  2.000000e+001  2.500000e+000
    endloop
  endfacet
  facet normal  -0.000000e+000  0.000000e+000  1.000000e+000
    outer loop
      vertex  5.750000e+001  2.000000e+001  2.500000e+000
      vertex  5.500000e+001  2.000000e+001  2.500000e+000
      vertex  5.500000e+001 -2.000000e+001  2.500000e+000
    endloop
  endfacet
  facet normal  0.000000e+000  0.000000e+000  1.000000e+000
    outer loop
      vertex  5.750000e+001  2.000000e+001  2.500000e+000
      vertex  5.500000e+001 -2.000000e+001  2.500000e+000
      vertex  5.750000e+001 -2.000000e+001  2.500000e+000
    endloop
  endfacet
  facet normal  0.000000e+000  0.000000e+000  1.000000e+000
    outer loop
      vertex  5.613934e+001 -2.947529e+001  2.500000e+000
      vertex  5.702901e+001 -2.871053e+001  2.500000e+000
      vertex  5.500000e+001 -2.975000e+001  2.500000e+000
    endloop
  endfacet
  facet normal  0.000000e+000  -0.000000e+000  1.000000e+000
    outer loop
      vertex  5.500000e+001 -2.975000e+001  2.500000e+000
      vertex  5.702901e+001 -2.871053e+001  2.500000e+000
      vertex  5.250000e+001 -2.772500e+001  2.500000e+000
    endloop
  endfacet
  facet normal  0.000000e+000  0.000000e+000  1.000000e+000
    outer loop
      vertex  5.500000e+001 -2.975000e+001  2.500000e+000
      vertex  5.250000e+001 -2.772500e+001  2.500000e+000
      vertex -5.750000e+001 -2.975000e+001  2.500000e+000
    endloop
  endfacet
  facet normal  0.000000e+000  0.000000e+000  9.999999e-001
    outer loop
      vertex -5.750000e+001 -2.975000e+001  2.500000e+000
      vertex  5.250000e+001 -2.772500e+001  2.500000e+000
      vertex -5.250000e+001 -2.772500e+001  2.500000e+000
    endloop
  endfacet
  facet normal  -0.000000e+000  0.000000e+000  1.000000e+000
    outer loop
      vertex  5.250000e+001  2.772500e+001  2.500000e+000
      vertex -5.250000e+001  2.772500e+001  2.500000e+000
      vertex  5.136863e+001  2.725637e+001  2.500000e+000
    endloop
  endfacet
  facet normal  0.000000e+000  0.000000e+000  1.000000e+000
    outer loop
      vertex  5.136863e+001  2.725637e+001  2.500000e+000
      vertex -5.250000e+001  2.772500e+001  2.500000e+000
      vertex -5.136863e+001  2.725637e+001  2.500000e+000
    endloop
  endfacet
  facet normal  -0.000000e+000  0.000000e+000  9.999999e-001
    outer loop
      vertex  5.136863e+001  2.725637e+001  2.500000e+000
      vertex -5.136863e+001  2.725637e+001  2.500000e+000
      vertex  5.090000e+001  2.612500e+001  2.500000e+000
    endloop
  endfacet
  facet normal  0.000000e+000  0.000000e+000  1.000000e+000
    outer loop
      vertex  5.090000e+001  2.612500e+001  2.500000e+000
      vertex -5.136863e+001  2.725637e+001  2.500000e+000
      vertex -5.090000e+001  2.612500e+001  2.500000e+000
    endloop
  endfacet
  facet normal  -0.000000e+000  0.000000e+000  1.000000e+000
    outer loop
      vertex  5.090000e+001  2.612500e+001  2.500000e+000
      vertex -5.090000e+001  2.612500e+001  2.500000e+000
      vertex  5.136863e+001  2.499363e+001  2.500000e+000
    endloop
  endfacet
  facet normal  0.000000e+000  0.000000e+000  9.999999e-001
    outer loop
      vertex  5.136863e+001  2.499363e+001  2.500000e+000
      vertex -5.090000e+001  2.612500e+001  2.500000e+000
      vertex -5.136863e+001  2.499363e+001  2.500000e+000
    endloop
  endfacet
  facet normal  -0.000000e+000  0.000000e+000  1.000000e+000
    outer loop
      vertex  5.136863e+001  2.499363e+001  2.500000e+000
      vertex -5.136863e+001  2.499363e+001  2.500000e+000
      vertex  5.250000e+001  2.452500e+001  2.500000e+000
    endloop
  endfacet
  facet normal  0.000000e+000  0.000000e+000  1.000000e+000
    outer loop
      vertex  5.250000e+001  2.452500e+001  2.500000e+000
      vertex -5.136863e+001  2.499363e+001  2.500000e+000
      vertex -5.250000e+001  2.452500e+001  2.500000e+000
    endloop
  endfacet
  facet normal  -0.000000e+000  0.000000e+000  1.000000e+000
    outer loop
      vertex  5.250000e+001 -2.452500e+001  2.500000e+000
      vertex -5.250000e+001 -2.452500e+001  2.500000e+000
      vertex  5.136863e+001 -2.499363e+001  2.500000e+000
    endloop
  endfacet
  facet normal  0.000000e+000  0.000000e+000  1.000000e+000
    outer loop
      vertex  5.136863e+001 -2.499363e+001  2.500000e+000
      vertex -5.250000e+001 -2.452500e+001  2.500000e+000
      vertex -5.136863e+001 -2.499363e+001  2.500000e+000
    endloop
  endfacet
  facet normal  -0.000000e+000  0.000000e+000  9.999999e-001
    outer loop
      vertex  5.136863e+001 -2.499363e+001  2.500000e+000
      vertex -5.136863e+001 -2.499363e+001  2.500000e+000
      vertex  5.090000e+001 -2.612500e+001  2.500000e+000
    endloop
  endfacet
  facet normal  0.000000e+000  0.000000e+000  1.000000e+000
    outer loop
      vertex  5.090000e+001 -2.612500e+001  2.500000e+000
      vertex -5.136863e+001 -2.499363e+001  2.500000e+000
      vertex -5.090000e+001 -2.612500e+001  2.500000e+000
    endloop
  endfacet
  facet normal  -0.000000e+000  0.000000e+000  1.000000e+000
    outer loop
      vertex  5.090000e+001 -2.612500e+001  2.500000e+000
      vertex -5.090000e+001 -2.612500e+001  2.500000e+000
      vertex  5.136863e+001 -2.725637e+001  2.500000e+000
    endloop
  endfacet
  facet normal  0.000000e+000  0.000000e+000  9.999999e-001
    outer loop
      vertex  5.136863e+001 -2.725637e+001  2.500000e+000
      vertex -5.090000e+001 -2.612500e+001  2.500000e+000
      vertex -5.136863e+001 -2.725637e+001  2.500000e+000
    endloop
  endfacet
  facet normal  -0.000000e+000  0.000000e+000  1.000000e+000
    outer loop
      vertex  5.136863e+001 -2.725637e+001  2.500000e+000
      vertex -5.136863e+001 -2.725637e+001  2.500000e+000
      vertex  5.250000e+001 -2.772500e+001  2.500000e+000
    endloop
  endfacet
  facet normal  0.000000e+000  0.000000e+000  1.000000e+000
    outer loop
      vertex  5.250000e+001 -2.772500e+001  2.500000e+000
      vertex -5.136863e+001 -2.725637e+001  2.500000e+000
      vertex -5.250000e+001 -2.772500e+001  2.500000e+000
    endloop
  endfacet
  facet normal  0.000000e+000  0.000000e+000  1.000000e+000
    outer loop
      vertex  5.613934e+001  2.947529e+001  2.500000e+000
      vertex  5.500000e+001  2.975000e+001  2.500000e+000
      vertex  5.702901e+001  2.871053e+001  2.500000e+000
    endloop
  endfacet
  facet normal  0.000000e+000  0.000000e+000  1.000000e+000
    outer loop
      vertex  5.702901e+001  2.871053e+001  2.500000e+000
      vertex  5.500000e+001  2.975000e+001  2.500000e+000
      vertex  5.250000e+001  2.772500e+001  2.500000e+000
    endloop
  endfacet
  facet normal  -0.000000e+000  0.000000e+000  1.000000e+000
    outer loop
      vertex  5.702901e+001  2.871053e+001  2.500000e+000
      vertex  5.250000e+001  2.772500e+001  2.500000e+000
      vertex  5.750000e+001  2.725000e+001  2.500000e+000
    endloop
  endfacet
  facet normal  0.000000e+000  0.000000e+000  1.000000e+000
    outer loop
      vertex  5.750000e+001  2.725000e+001  2.500000e+000
      vertex  5.250000e+001  2.772500e+001  2.500000e+000
      vertex  5.363137e+001  2.725637e+001  2.500000e+000
    endloop
  endfacet
  facet normal  0.000000e+000  -0.000000e+000  1.000000e+000
    outer loop
      vertex  5.250000e+001 -2.452500e+001  2.500000e+000
      vertex  5.363137e+001 -2.499363e+001  2.500000e+000
      vertex  5.500000e+001 -2.000000e+001  2.500000e+000
    endloop
  endfacet
  facet normal  -0.000000e+000  0.000000e+000  9.999999e-001
    outer loop
      vertex  5.500000e+001 -2.000000e+001  2.500000e+000
      vertex  5.363137e+001 -2.499363e+001  2.500000e+000
      vertex  5.750000e+001 -2.000000e+001  2.500000e+000
    endloop
  endfacet
  facet normal  1.000000e+000  0.000000e+000  0.000000e+000
    outer loop
      vertex  5.750000e+001 -2.000000e+001 -1.700000e+001
      vertex  5.750000e+001  2.000000e+001 -1.700000e+001
      vertex  5.750000e+001 -2.000000e+001  2.500000e+000
    endloop
  endfacet
  facet normal  1.000000e+000  -0.000000e+000  0.000000e+000
    outer loop
      vertex  5.750000e+001 -2.000000e+001  2.500000e+000
      vertex  5.750000e+001  2.000000e+001 -1.700000e+001
      vertex  5.750000e+001  2.000000e+001  2.500000e+000
    endloop
  endfacet
  facet normal  0.000000e+000  0.000000e+000 -1.000000e+000
    outer loop
      vertex -5.363771e+001 -2.725000e+001  0.000000e+000
      vertex -5.750000e+001 -2.725000e+001  0.000000e+000
      vertex -5.410000e+001 -2.612500e+001  0.000000e+000
    endloop
  endfacet
  facet normal -1.629933e-016 -1.303948e-016 -1.000000e+000
    outer loop
      vertex  5.363771e+001 -2.725000e+001  2.220446e-016
      vertex  5.410000e+001 -2.612500e+001  0.000000e+000
      vertex  5.500000e+001 -2.725000e+001  0.000000e+000
    endloop
  endfacet
  facet normal  0.000000e+000  0.000000e+000 -1.000000e+000
    outer loop
      vertex -5.250000e+001 -2.452500e+001  0.000000e+000
      vertex -5.363137e+001 -2.499363e+001  0.000000e+000
      vertex -5.750000e+001 -2.250000e+001  0.000000e+000
    endloop
  endfacet
  facet normal  0.000000e+000  0.000000e+000 -1.000000e+000
    outer loop
      vertex -5.750000e+001 -2.250000e+001  0.000000e+000
      vertex -5.363137e+001 -2.499363e+001  0.000000e+000
      vertex -5.410000e+001 -2.612500e+001  0.000000e+000
    endloop
  endfacet
  facet normal  -0.000000e+000  0.000000e+000 -1.000000e+000
    outer loop
      vertex -5.750000e+001 -2.250000e+001  0.000000e+000
      vertex -5.410000e+001 -2.612500e+001  0.000000e+000
      vertex -5.750000e+001 -2.725000e+001  0.000000e+000
    endloop
  endfacet
  facet normal  0.000000e+000  0.000000e+000 -1.000000e+000
    outer loop
      vertex  5.136863e+001 -2.499363e+001  0.000000e+000
      vertex -5.250000e+001 -2.452500e+001  0.000000e+000
      vertex  5.250000e+001 -2.452500e+001  0.000000e+000
    endloop
  endfacet
  facet normal  0.000000e+000  0.000000e+000 -9.999999e-001
    outer loop
      vertex  5.250000e+001 -2.452500e+001  0.000000e+000
      vertex -5.250000e+001 -2.452500e+001  0.000000e+000
      vertex -5.750000e+001 -2.250000e+001  0.000000e+000
    endloop
  endfacet
  facet normal  0.000000e+000  0.000000e+000 -1.000000e+000
    outer loop
      vertex  5.250000e+001 -2.452500e+001  0.000000e+000
      vertex -5.750000e+001 -2.250000e+001  0.000000e+000
      vertex  5.500000e+001 -2.250000e+001  0.000000e+000
    endloop
  endfacet
  facet normal  0.000000e+000  0.000000e+000 -1.000000e+000
    outer loop
      vertex -5.250000e+001 -2.452500e+001  0.000000e+000
      vertex  5.136863e+001 -2.499363e+001  0.000000e+000
      vertex -5.136863e+001 -2.499363e+001  0.000000e+000
    endloop
  endfacet
  facet normal  0.000000e+000  0.000000e+000 -9.999999e-001
    outer loop
      vertex -5.136863e+001 -2.499363e+001  0.000000e+000
      vertex  5.136863e+001 -2.499363e+001  0.000000e+000
      vertex  5.090000e+001 -2.612500e+001  0.000000e+000
    endloop
  endfacet
  facet normal  0.000000e+000  0.000000e+000 -1.000000e+000
    outer loop
      vertex -5.136863e+001 -2.499363e+001  0.000000e+000
      vertex  5.090000e+001 -2.612500e+001  0.000000e+000
      vertex -5.090000e+001 -2.612500e+001  0.000000e+000
    endloop
  endfacet
  facet normal  0.000000e+000  0.000000e+000 -1.000000e+000
    outer loop
      vertex -5.090000e+001 -2.612500e+001  0.000000e+000
      vertex  5.090000e+001 -2.612500e+001  0.000000e+000
      vertex  5.136229e+001 -2.725000e+001  0.000000e+000
    endloop
  endfacet
  facet normal -2.161553e-018 -1.964848e-016 -1.000000e+000
    outer loop
      vertex -5.090000e+001 -2.612500e+001  0.000000e+000
      vertex  5.136229e+001 -2.725000e+001  0.000000e+000
      vertex -5.136229e+001 -2.725000e+001  2.220446e-016
    endloop
  endfacet
  facet normal  0.000000e+000  0.000000e+000 -1.000000e+000
    outer loop
      vertex  5.250000e+001 -2.452500e+001  0.000000e+000
      vertex  5.500000e+001 -2.250000e+001  0.000000e+000
      vertex  5.363137e+001 -2.499363e+001  0.000000e+000
    endloop
  endfacet
  facet normal  0.000000e+000  0.000000e+000 -9.999999e-001
    outer loop
      vertex  5.363137e+001 -2.499363e+001  0.000000e+000
      vertex  5.500000e+001 -2.250000e+001  0.000000e+000
      vertex  5.500000e+001 -2.725000e+001  0.000000e+000
    endloop
  endfacet
  facet normal  0.000000e+000  0.000000e+000 -1.000000e+000
    outer loop
      vertex  5.363137e+001 -2.499363e+001  0.000000e+000
      vertex  5.500000e+001 -2.725000e+001  0.000000e+000
      vertex  5.410000e+001 -2.612500e+001  0.000000e+000
    endloop
  endfacet
  facet normal  -0.000000e+000 -3.826834e-001 -9.238795e-001
    outer loop
      vertex -5.750000e+001 -2.725000e+001  0.000000e+000
      vertex -5.363771e+001 -2.725000e+001  0.000000e+000
      vertex -5.750000e+001 -2.901777e+001  7.322330e-001
    endloop
  endfacet
  facet normal -7.617302e-002 -2.349540e-001 -9.690172e-001
    outer loop
      vertex -5.750000e+001 -2.901777e+001  7.322330e-001
      vertex -5.363771e+001 -2.725000e+001  0.000000e+000
      vertex -5.276725e+001 -2.770252e+001  4.129634e-002
    endloop
  endfacet
  facet normal -2.124035e-003 -4.590608e-001 -8.884023e-001
    outer loop
      vertex -5.750000e+001 -2.901777e+001  7.322330e-001
      vertex -5.276725e+001 -2.770252e+001  4.129634e-002
      vertex -5.225551e+001 -2.770621e+001  4.197796e-002
    endloop
  endfacet
  facet normal  0.000000e+000 -9.238795e-001 -3.826834e-001
    outer loop
      vertex  5.500000e+001 -2.975000e+001  2.500000e+000
      vertex -5.750000e+001 -2.975000e+001  2.500000e+000
      vertex  5.500000e+001 -2.901777e+001  7.322330e-001
    endloop
  endfacet
  facet normal  -0.000000e+000 -9.238795e-001 -3.826834e-001
    outer loop
      vertex  5.500000e+001 -2.901777e+001  7.322330e-001
      vertex -5.750000e+001 -2.975000e+001  2.500000e+000
      vertex -5.750000e+001 -2.901777e+001  7.322330e-001
    endloop
  endfacet
  facet normal  0.000000e+000 -4.657261e-001 -8.849289e-001
    outer loop
      vertex  5.500000e+001 -2.901777e+001  7.322330e-001
      vertex -5.750000e+001 -2.901777e+001  7.322330e-001
      vertex  5.274449e+001 -2.770621e+001  4.197796e-002
    endloop
  endfacet
  facet normal  -0.000000e+000 -4.657261e-001 -8.849289e-001
    outer loop
      vertex  5.274449e+001 -2.770621e+001  4.197796e-002
      vertex -5.750000e+001 -2.901777e+001  7.322330e-001
      vertex -5.225551e+001 -2.770621e+001  4.197796e-002
    endloop
  endfacet
  facet normal  0.000000e+000 -1.817962e-001 -9.833363e-001
    outer loop
      vertex  5.274449e+001 -2.770621e+001  4.197796e-002
      vertex -5.225551e+001 -2.770621e+001  4.197796e-002
      vertex  5.223275e+001 -2.770252e+001  4.129634e-002
    endloop
  endfacet
  facet normal  0.000000e+000 -9.088050e-002 -9.958618e-001
    outer loop
      vertex  5.136229e+001 -2.725000e+001  0.000000e+000
      vertex  5.223275e+001 -2.770252e+001  4.129634e-002
      vertex -5.136229e+001 -2.725000e+001  2.220446e-016
    endloop
  endfacet
  facet normal -3.263153e-006 -9.162132e-002 -9.957939e-001
    outer loop
      vertex -5.136229e+001 -2.725000e+001  2.220446e-016
      vertex  5.223275e+001 -2.770252e+001  4.129634e-002
      vertex -5.225551e+001 -2.770621e+001  4.197796e-002
    endloop
  endfacet
  facet normal  1.116586e-001 -3.056255e-001 -9.455821e-001
    outer loop
      vertex  5.274449e+001 -2.770621e+001  4.197796e-002
      vertex  5.363771e+001 -2.725000e+001  2.220446e-016
      vertex  5.500000e+001 -2.901777e+001  7.322330e-001
    endloop
  endfacet
  facet normal  0.000000e+000 -3.826834e-001 -9.238795e-001
    outer loop
      vertex  5.500000e+001 -2.901777e+001  7.322330e-001
      vertex  5.363771e+001 -2.725000e+001  2.220446e-016
      vertex  5.500000e+001 -2.725000e+001  0.000000e+000
    endloop
  endfacet
  facet normal  9.124874e-001 -1.565577e-001 -3.779637e-001
    outer loop
      vertex  5.750000e+001 -2.725000e+001  2.500000e+000
      vertex  5.676777e+001 -2.850000e+001  1.250000e+000
      vertex  5.676777e+001 -2.725000e+001  7.322330e-001
    endloop
  endfacet
  facet normal  9.231903e-001 -2.977121e-001 -2.430788e-001
    outer loop
      vertex  5.750000e+001 -2.725000e+001  2.500000e+000
      vertex  5.702901e+001 -2.871053e+001  2.500000e+000
      vertex  5.676777e+001 -2.850000e+001  1.250000e+000
    endloop
  endfacet
  facet normal  6.302791e-001 -7.332224e-001 -2.552119e-001
    outer loop
      vertex  5.676777e+001 -2.850000e+001  1.250000e+000
      vertex  5.702901e+001 -2.871053e+001  2.500000e+000
      vertex  5.613934e+001 -2.947529e+001  2.500000e+000
    endloop
  endfacet
  facet normal  1.973686e-001 -8.185642e-001 -5.394425e-001
    outer loop
      vertex  5.613934e+001 -2.947529e+001  2.500000e+000
      vertex  5.500000e+001 -2.975000e+001  2.500000e+000
      vertex  5.676777e+001 -2.850000e+001  1.250000e+000
    endloop
  endfacet
  facet normal  3.574064e-001 -8.628563e-001 -3.574068e-001
    outer loop
      vertex  5.676777e+001 -2.850000e+001  1.250000e+000
      vertex  5.500000e+001 -2.975000e+001  2.500000e+000
      vertex  5.500000e+001 -2.901777e+001  7.322330e-001
    endloop
  endfacet
  facet normal  3.574064e-001 -3.574068e-001 -8.628564e-001
    outer loop
      vertex  5.676777e+001 -2.850000e+001  1.250000e+000
      vertex  5.500000e+001 -2.901777e+001  7.322330e-001
      vertex  5.676777e+001 -2.725000e+001  7.322330e-001
    endloop
  endfacet
  facet normal  3.574064e-001 -3.574068e-001 -8.628563e-001
    outer loop
      vertex  5.676777e+001 -2.725000e+001  7.322330e-001
      vertex  5.500000e+001 -2.901777e+001  7.322330e-001
      vertex  5.500000e+001 -2.725000e+001  0.000000e+000
    endloop
  endfacet
  facet normal  9.861605e-001  0.000000e+000 -1.657939e-001
    outer loop
      vertex  5.750000e+001 -2.000000e+001  2.500000e+000
      vertex  5.750000e+001 -2.725000e+001  2.500000e+000
      vertex  5.736256e+001 -2.081751e+001  1.682493e+000
    endloop
  endfacet
  facet normal  9.234944e-001 -2.888307e-002 -3.825229e-001
    outer loop
      vertex  5.736256e+001 -2.081751e+001  1.682493e+000
      vertex  5.750000e+001 -2.725000e+001  2.500000e+000
      vertex  5.676777e+001 -2.725000e+001  7.322330e-001
    endloop
  endfacet
  facet normal  8.349928e-001  4.077751e-003 -5.502457e-001
    outer loop
      vertex  5.736256e+001 -2.081751e+001  1.682493e+000
      vertex  5.676777e+001 -2.725000e+001  7.322330e-001
      vertex  5.669572e+001 -2.183699e+001  6.630094e-001
    endloop
  endfacet
  facet normal  5.715345e-001 -2.886169e-003 -8.205730e-001
    outer loop
      vertex  5.669572e+001 -2.183699e+001  6.630094e-001
      vertex  5.676777e+001 -2.725000e+001  7.322330e-001
      vertex  5.612782e+001 -2.223115e+001  2.688539e-001
    endloop
  endfacet
  facet normal  3.824284e-001 -3.648007e-002 -9.232648e-001
    outer loop
      vertex  5.612782e+001 -2.223115e+001  2.688539e-001
      vertex  5.676777e+001 -2.725000e+001  7.322330e-001
      vertex  5.500000e+001 -2.725000e+001  0.000000e+000
    endloop
  endfacet
  facet normal  2.318855e-001  0.000000e+000 -9.727431e-001
    outer loop
      vertex  5.612782e+001 -2.223115e+001  2.688539e-001
      vertex  5.500000e+001 -2.725000e+001  0.000000e+000
      vertex  5.500000e+001 -2.250000e+001  0.000000e+000
    endloop
  endfacet
  facet normal  3.826831e-001  9.238797e-001  0.000000e+000
    outer loop
      vertex  5.500000e+001  2.250000e+001 -1.700000e+001
      vertex  5.500000e+001  2.250000e+001  0.000000e+000
      vertex  5.676777e+001  2.176777e+001 -1.700000e+001
    endloop
  endfacet
  facet normal  2.357594e-001  9.716568e-001 -1.733595e-002
    outer loop
      vertex  5.676777e+001  2.176777e+001 -1.700000e+001
      vertex  5.500000e+001  2.250000e+001  0.000000e+000
      vertex  5.612782e+001  2.223115e+001  2.688539e-001
    endloop
  endfacet
  facet normal  5.705990e-001  8.212283e-001 -8.910454e-004
    outer loop
      vertex  5.676777e+001  2.176777e+001 -1.700000e+001
      vertex  5.612782e+001  2.223115e+001  2.688539e-001
      vertex  5.669572e+001  2.183699e+001  6.630094e-001
    endloop
  endfacet
  facet normal  9.861605e-001  1.657939e-001  -0.000000e+000
    outer loop
      vertex  5.750000e+001  2.000000e+001  2.500000e+000
      vertex  5.750000e+001  2.000000e+001 -1.700000e+001
      vertex  5.736256e+001  2.081751e+001  1.682493e+000
    endloop
  endfacet
  facet normal  9.238342e-001  3.826636e-001 -9.948277e-003
    outer loop
      vertex  5.736256e+001  2.081751e+001  1.682493e+000
      vertex  5.750000e+001  2.000000e+001 -1.700000e+001
      vertex  5.676777e+001  2.176777e+001 -1.700000e+001
    endloop
  endfacet
  facet normal  8.362939e-001  5.482798e-001  1.262569e-003
    outer loop
      vertex  5.736256e+001  2.081751e+001  1.682493e+000
      vertex  5.676777e+001  2.176777e+001 -1.700000e+001
      vertex  5.669572e+001  2.183699e+001  6.630094e-001
    endloop
  endfacet
  facet normal  0.000000e+000  -0.000000e+000 -1.000000e+000
    outer loop
      vertex  5.250000e+001  2.452500e+001  0.000000e+000
      vertex  5.363137e+001  2.499363e+001  0.000000e+000
      vertex  5.500000e+001  2.250000e+001  0.000000e+000
    endloop
  endfacet
  facet normal  5.749035e-017  0.000000e+000 -1.000000e+000
    outer loop
      vertex -5.750000e+001  2.250000e+001  0.000000e+000
      vertex -5.750000e+001  2.725000e+001  0.000000e+000
      vertex -5.363771e+001  2.725000e+001  2.220446e-016
    endloop
  endfacet
  facet normal -3.745179e-016  3.512721e-016 -1.000000e+000
    outer loop
      vertex -5.750000e+001  2.250000e+001  0.000000e+000
      vertex -5.363771e+001  2.725000e+001  2.220446e-016
      vertex -5.410000e+001  2.612500e+001  0.000000e+000
    endloop
  endfacet
  facet normal  0.000000e+000  -0.000000e+000 -1.000000e+000
    outer loop
      vertex -5.750000e+001  2.250000e+001  0.000000e+000
      vertex -5.410000e+001  2.612500e+001  0.000000e+000
      vertex -5.363137e+001  2.499363e+001  0.000000e+000
    endloop
  endfacet
  facet normal  0.000000e+000  -0.000000e+000 -1.000000e+000
    outer loop
      vertex -5.750000e+001  2.250000e+001  0.000000e+000
      vertex -5.363137e+001  2.499363e+001  0.000000e+000
      vertex -5.250000e+001  2.452500e+001  0.000000e+000
    endloop
  endfacet
  facet normal  0.000000e+000  -0.000000e+000 -9.999999e-001
    outer loop
      vertex -5.750000e+001  2.250000e+001  0.000000e+000
      vertex -5.250000e+001  2.452500e+001  0.000000e+000
      vertex  5.250000e+001  2.452500e+001  0.000000e+000
    endloop
  endfacet
  facet normal  0.000000e+000  -0.000000e+000 -1.000000e+000
    outer loop
      vertex -5.750000e+001  2.250000e+001  0.000000e+000
      vertex  5.250000e+001  2.452500e+001  0.000000e+000
      vertex  5.500000e+001  2.250000e+001  0.000000e+000
    endloop
  endfacet
  facet normal  -0.000000e+000  0.000000e+000 -1.000000e+000
    outer loop
      vertex  5.363771e+001  2.725000e+001  0.000000e+000
      vertex  5.500000e+001  2.725000e+001  0.000000e+000
      vertex  5.410000e+001  2.612500e+001  0.000000e+000
    endloop
  endfacet
  facet normal  0.000000e+000  0.000000e+000 -1.000000e+000
    outer loop
      vertex  5.410000e+001  2.612500e+001  0.000000e+000
      vertex  5.500000e+001  2.725000e+001  0.000000e+000
      vertex  5.500000e+001  2.250000e+001  0.000000e+000
    endloop
  endfacet
  facet normal  0.000000e+000  0.000000e+000 -1.000000e+000
    outer loop
      vertex  5.410000e+001  2.612500e+001  0.000000e+000
      vertex  5.500000e+001  2.250000e+001  0.000000e+000
      vertex  5.363137e+001  2.499363e+001  0.000000e+000
    endloop
  endfacet
  facet normal  4.323105e-018  1.955965e-016 -1.000000e+000
    outer loop
      vertex  5.090000e+001  2.612500e+001  0.000000e+000
      vertex -5.136229e+001  2.725000e+001 -2.220446e-016
      vertex  5.136229e+001  2.725000e+001  2.220446e-016
    endloop
  endfacet
  facet normal  -0.000000e+000 -1.973730e-016 -1.000000e+000
    outer loop
      vertex -5.136229e+001  2.725000e+001 -2.220446e-016
      vertex  5.090000e+001  2.612500e+001  0.000000e+000
      vertex -5.090000e+001  2.612500e+001  0.000000e+000
    endloop
  endfacet
  facet normal  0.000000e+000  0.000000e+000 -1.000000e+000
    outer loop
      vertex -5.090000e+001  2.612500e+001  0.000000e+000
      vertex  5.090000e+001  2.612500e+001  0.000000e+000
      vertex  5.136863e+001  2.499363e+001  0.000000e+000
    endloop
  endfacet
  facet normal  0.000000e+000  0.000000e+000 -9.999999e-001
    outer loop
      vertex -5.090000e+001  2.612500e+001  0.000000e+000
      vertex  5.136863e+001  2.499363e+001  0.000000e+000
      vertex -5.136863e+001  2.499363e+001  0.000000e+000
    endloop
  endfacet
  facet normal  0.000000e+000  0.000000e+000 -1.000000e+000
    outer loop
      vertex -5.136863e+001  2.499363e+001  0.000000e+000
      vertex  5.136863e+001  2.499363e+001  0.000000e+000
      vertex  5.250000e+001  2.452500e+001  0.000000e+000
    endloop
  endfacet
  facet normal  0.000000e+000  0.000000e+000 -1.000000e+000
    outer loop
      vertex -5.136863e+001  2.499363e+001  0.000000e+000
      vertex  5.250000e+001  2.452500e+001  0.000000e+000
      vertex -5.250000e+001  2.452500e+001  0.000000e+000
    endloop
  endfacet
  facet normal  0.000000e+000  3.826834e-001 -9.238795e-001
    outer loop
      vertex  5.500000e+001  2.725000e+001  0.000000e+000
      vertex  5.363771e+001  2.725000e+001  0.000000e+000
      vertex  5.500000e+001  2.901777e+001  7.322330e-001
    endloop
  endfacet
  facet normal  1.133715e-001  3.043866e-001 -9.457778e-001
    outer loop
      vertex  5.500000e+001  2.901777e+001  7.322330e-001
      vertex  5.363771e+001  2.725000e+001  0.000000e+000
      vertex  5.276725e+001  2.770252e+001  4.129634e-002
    endloop
  endfacet
  facet normal  2.148823e-003  4.622001e-001 -8.867730e-001
    outer loop
      vertex  5.500000e+001  2.901777e+001  7.322330e-001
      vertex  5.276725e+001  2.770252e+001  4.129634e-002
      vertex  5.225551e+001  2.770621e+001  4.197796e-002
    endloop
  endfacet
  facet normal  0.000000e+000  9.238795e-001 -3.826834e-001
    outer loop
      vertex -5.750000e+001  2.975000e+001  2.500000e+000
      vertex  5.500000e+001  2.975000e+001  2.500000e+000
      vertex -5.750000e+001  2.901777e+001  7.322330e-001
    endloop
  endfacet
  facet normal  0.000000e+000  9.238795e-001 -3.826834e-001
    outer loop
      vertex -5.750000e+001  2.901777e+001  7.322330e-001
      vertex  5.500000e+001  2.975000e+001  2.500000e+000
      vertex  5.500000e+001  2.901777e+001  7.322330e-001
    endloop
  endfacet
  facet normal  0.000000e+000  4.657261e-001 -8.849289e-001
    outer loop
      vertex -5.750000e+001  2.901777e+001  7.322330e-001
      vertex  5.500000e+001  2.901777e+001  7.322330e-001
      vertex -5.274449e+001  2.770621e+001  4.197796e-002
    endloop
  endfacet
  facet normal  0.000000e+000  4.657261e-001 -8.849289e-001
    outer loop
      vertex -5.274449e+001  2.770621e+001  4.197796e-002
      vertex  5.500000e+001  2.901777e+001  7.322330e-001
      vertex  5.225551e+001  2.770621e+001  4.197796e-002
    endloop
  endfacet
  facet normal  0.000000e+000  1.817962e-001 -9.833363e-001
    outer loop
      vertex -5.274449e+001  2.770621e+001  4.197796e-002
      vertex  5.225551e+001  2.770621e+001  4.197796e-002
      vertex -5.223275e+001  2.770252e+001  4.129634e-002
    endloop
  endfacet
  facet normal  0.000000e+000  9.088050e-002 -9.958618e-001
    outer loop
      vertex -5.136229e+001  2.725000e+001 -2.220446e-016
      vertex -5.223275e+001  2.770252e+001  4.129634e-002
      vertex  5.136229e+001  2.725000e+001  2.220446e-016
    endloop
  endfacet
  facet normal  3.263153e-006  9.162132e-002 -9.957939e-001
    outer loop
      vertex  5.136229e+001  2.725000e+001  2.220446e-016
      vertex -5.223275e+001  2.770252e+001  4.129634e-002
      vertex  5.225551e+001  2.770621e+001  4.197796e-002
    endloop
  endfacet
  facet normal -7.533756e-002  2.366367e-001 -9.686730e-001
    outer loop
      vertex -5.274449e+001  2.770621e+001  4.197796e-002
      vertex -5.363771e+001  2.725000e+001  2.220446e-016
      vertex -5.750000e+001  2.901777e+001  7.322330e-001
    endloop
  endfacet
  facet normal  0.000000e+000  3.826834e-001 -9.238795e-001
    outer loop
      vertex -5.750000e+001  2.901777e+001  7.322330e-001
      vertex -5.363771e+001  2.725000e+001  2.220446e-016
      vertex -5.750000e+001  2.725000e+001  0.000000e+000
    endloop
  endfacet
  facet normal  9.238799e-001  0.000000e+000 -3.826826e-001
    outer loop
      vertex  5.676777e+001  2.725000e+001  7.322330e-001
      vertex  5.750000e+001  2.725000e+001  2.500000e+000
      vertex  5.750000e+001  2.000000e+001  2.500000e+000
    endloop
  endfacet
  facet normal  9.929862e-001  7.879668e-002 -8.814477e-002
    outer loop
      vertex  5.676777e+001  2.725000e+001  7.322330e-001
      vertex  5.750000e+001  2.000000e+001  2.500000e+000
      vertex  5.736256e+001  2.081751e+001  1.682493e+000
    endloop
  endfacet
  facet normal  8.349928e-001 -4.077758e-003 -5.502457e-001
    outer loop
      vertex  5.676777e+001  2.725000e+001  7.322330e-001
      vertex  5.736256e+001  2.081751e+001  1.682493e+000
      vertex  5.669572e+001  2.183699e+001  6.630094e-001
    endloop
  endfacet
  facet normal  5.715345e-001  2.886169e-003 -8.205730e-001
    outer loop
      vertex  5.676777e+001  2.725000e+001  7.322330e-001
      vertex  5.669572e+001  2.183699e+001  6.630094e-001
      vertex  5.612782e+001  2.223115e+001  2.688539e-001
    endloop
  endfacet
  facet normal  2.445938e-001  5.817427e-002 -9.678789e-001
    outer loop
      vertex  5.676777e+001  2.725000e+001  7.322330e-001
      vertex  5.612782e+001  2.223115e+001  2.688539e-001
      vertex  5.500000e+001  2.250000e+001  0.000000e+000
    endloop
  endfacet
  facet normal  3.826831e-001  0.000000e+000 -9.238796e-001
    outer loop
      vertex  5.676777e+001  2.725000e+001  7.322330e-001
      vertex  5.500000e+001  2.250000e+001  0.000000e+000
      vertex  5.500000e+001  2.725000e+001  0.000000e+000
    endloop
  endfacet
  facet normal  9.231903e-001  2.977121e-001 -2.430788e-001
    outer loop
      vertex  5.750000e+001  2.725000e+001  2.500000e+000
      vertex  5.676777e+001  2.850000e+001  1.250000e+000
      vertex  5.702901e+001  2.871053e+001  2.500000e+000
    endloop
  endfacet
  facet normal  9.124874e-001  1.565577e-001 -3.779637e-001
    outer loop
      vertex  5.750000e+001  2.725000e+001  2.500000e+000
      vertex  5.676777e+001  2.725000e+001  7.322330e-001
      vertex  5.676777e+001  2.850000e+001  1.250000e+000
    endloop
  endfacet
  facet normal  6.302791e-001  7.332224e-001 -2.552119e-001
    outer loop
      vertex  5.613934e+001  2.947529e+001  2.500000e+000
      vertex  5.702901e+001  2.871053e+001  2.500000e+000
      vertex  5.676777e+001  2.850000e+001  1.250000e+000
    endloop
  endfacet
  facet normal  3.574064e-001  3.574068e-001 -8.628564e-001
    outer loop
      vertex  5.676777e+001  2.725000e+001  7.322330e-001
      vertex  5.500000e+001  2.725000e+001  0.000000e+000
      vertex  5.676777e+001  2.850000e+001  1.250000e+000
    endloop
  endfacet
  facet normal  3.574064e-001  3.574068e-001 -8.628563e-001
    outer loop
      vertex  5.676777e+001  2.850000e+001  1.250000e+000
      vertex  5.500000e+001  2.725000e+001  0.000000e+000
      vertex  5.500000e+001  2.901777e+001  7.322330e-001
    endloop
  endfacet
  facet normal  3.697413e-001  8.135256e-001 -4.488515e-001
    outer loop
      vertex  5.676777e+001  2.850000e+001  1.250000e+000
      vertex  5.500000e+001  2.901777e+001  7.322330e-001
      vertex  5.613934e+001  2.947529e+001  2.500000e+000
    endloop
  endfacet
  facet normal  2.174323e-001  9.017761e-001 -3.735279e-001
    outer loop
      vertex  5.613934e+001  2.947529e+001  2.500000e+000
      vertex  5.500000e+001  2.901777e+001  7.322330e-001
      vertex  5.500000e+001  2.975000e+001  2.500000e+000
    endloop
  endfacet
  facet normal  -0.000000e+000 -3.826834e-001 -9.238795e-001
    outer loop
      vertex -5.750000e+001 -2.000000e+001 -1.950000e+001
      vertex  5.500000e+001 -2.000000e+001 -1.950000e+001
      vertex -5.750000e+001 -2.176777e+001 -1.876777e+001
    endloop
  endfacet
  facet normal  0.000000e+000 -3.826834e-001 -9.238795e-001
    outer loop
      vertex -5.750000e+001 -2.176777e+001 -1.876777e+001
      vertex  5.500000e+001 -2.000000e+001 -1.950000e+001
      vertex  5.500000e+001 -2.176777e+001 -1.876777e+001
    endloop
  endfacet
  facet normal  -0.000000e+000 -9.238795e-001 -3.826834e-001
    outer loop
      vertex -5.750000e+001 -2.176777e+001 -1.876777e+001
      vertex  5.500000e+001 -2.176777e+001 -1.876777e+001
      vertex -5.750000e+001 -2.250000e+001 -1.700000e+001
    endloop
  endfacet
  facet normal  0.000000e+000 -9.238795e-001 -3.826834e-001
    outer loop
      vertex -5.750000e+001 -2.250000e+001 -1.700000e+001
      vertex  5.500000e+001 -2.176777e+001 -1.876777e+001
      vertex  5.500000e+001 -2.250000e+001 -1.700000e+001
    endloop
  endfacet
  facet normal  -0.000000e+000  0.000000e+000 -1.000000e+000
    outer loop
      vertex -5.750000e+001  2.000000e+001 -1.950000e+001
      vertex  5.500000e+001  2.000000e+001 -1.950000e+001
      vertex -5.750000e+001 -2.000000e+001 -1.950000e+001
    endloop
  endfacet
  facet normal  0.000000e+000  0.000000e+000 -1.000000e+000
    outer loop
      vertex -5.750000e+001 -2.000000e+001 -1.950000e+001
      vertex  5.500000e+001  2.000000e+001 -1.950000e+001
      vertex  5.500000e+001 -2.000000e+001 -1.950000e+001
    endloop
  endfacet
  facet normal  0.000000e+000 -1.000000e+000  -0.000000e+000
    outer loop
      vertex  5.500000e+001 -2.250000e+001 -1.700000e+001
      vertex  5.500000e+001 -2.250000e+001  0.000000e+000
      vertex -5.750000e+001 -2.250000e+001 -1.700000e+001
    endloop
  endfacet
  facet normal  0.000000e+000 -1.000000e+000  0.000000e+000
    outer loop
      vertex -5.750000e+001 -2.250000e+001 -1.700000e+001
      vertex  5.500000e+001 -2.250000e+001  0.000000e+000
      vertex -5.750000e+001 -2.250000e+001  0.000000e+000
    endloop
  endfacet
  facet normal  0.000000e+000  9.238795e-001 -3.826834e-001
    outer loop
      vertex -5.750000e+001  2.250000e+001 -1.700000e+001
      vertex  5.500000e+001  2.250000e+001 -1.700000e+001
      vertex -5.750000e+001  2.176777e+001 -1.876777e+001
    endloop
  endfacet
  facet normal  0.000000e+000  9.238795e-001 -3.826834e-001
    outer loop
      vertex -5.750000e+001  2.176777e+001 -1.876777e+001
      vertex  5.500000e+001  2.250000e+001 -1.700000e+001
      vertex  5.500000e+001  2.176777e+001 -1.876777e+001
    endloop
  endfacet
  facet normal  0.000000e+000  3.826834e-001 -9.238795e-001
    outer loop
      vertex -5.750000e+001  2.176777e+001 -1.876777e+001
      vertex  5.500000e+001  2.176777e+001 -1.876777e+001
      vertex -5.750000e+001  2.000000e+001 -1.950000e+001
    endloop
  endfacet
  facet normal  0.000000e+000  3.826834e-001 -9.238795e-001
    outer loop
      vertex -5.750000e+001  2.000000e+001 -1.950000e+001
      vertex  5.500000e+001  2.176777e+001 -1.876777e+001
      vertex  5.500000e+001  2.000000e+001 -1.950000e+001
    endloop
  endfacet
  facet normal  0.000000e+000  1.000000e+000  0.000000e+000
    outer loop
      vertex -5.750000e+001  2.250000e+001 -1.700000e+001
      vertex -5.750000e+001  2.250000e+001  0.000000e+000
      vertex  5.500000e+001  2.250000e+001 -1.700000e+001
    endloop
  endfacet
  facet normal  0.000000e+000  1.000000e+000  -0.000000e+000
    outer loop
      vertex  5.500000e+001  2.250000e+001 -1.700000e+001
      vertex -5.750000e+001  2.250000e+001  0.000000e+000
      vertex  5.500000e+001  2.250000e+001  0.000000e+000
    endloop
  endfacet
  facet normal  9.124874e-001  3.779637e-001 -1.565577e-001
    outer loop
      vertex  5.750000e+001  2.000000e+001 -1.700000e+001
      vertex  5.676777e+001  2.125000e+001 -1.825000e+001
      vertex  5.676777e+001  2.176777e+001 -1.700000e+001
    endloop
  endfacet
  facet normal  9.124874e-001  1.565577e-001 -3.779637e-001
    outer loop
      vertex  5.750000e+001  2.000000e+001 -1.700000e+001
      vertex  5.676777e+001  2.000000e+001 -1.876777e+001
      vertex  5.676777e+001  2.125000e+001 -1.825000e+001
    endloop
  endfacet
  facet normal  3.574064e-001  3.574068e-001 -8.628564e-001
    outer loop
      vertex  5.676777e+001  2.000000e+001 -1.876777e+001
      vertex  5.500000e+001  2.000000e+001 -1.950000e+001
      vertex  5.676777e+001  2.125000e+001 -1.825000e+001
    endloop
  endfacet
  facet normal  3.574064e-001  3.574068e-001 -8.628563e-001
    outer loop
      vertex  5.676777e+001  2.125000e+001 -1.825000e+001
      vertex  5.500000e+001  2.000000e+001 -1.950000e+001
      vertex  5.500000e+001  2.176777e+001 -1.876777e+001
    endloop
  endfacet
  facet normal  3.574064e-001  8.628564e-001 -3.574068e-001
    outer loop
      vertex  5.676777e+001  2.125000e+001 -1.825000e+001
      vertex  5.500000e+001  2.176777e+001 -1.876777e+001
      vertex  5.676777e+001  2.176777e+001 -1.700000e+001
    endloop
  endfacet
  facet normal  3.574064e-001  8.628563e-001 -3.574068e-001
    outer loop
      vertex  5.676777e+001  2.176777e+001 -1.700000e+001
      vertex  5.500000e+001  2.176777e+001 -1.876777e+001
      vertex  5.500000e+001  2.250000e+001 -1.700000e+001
    endloop
  endfacet
  facet normal  3.826831e-001  0.000000e+000 -9.238797e-001
    outer loop
      vertex  5.500000e+001 -2.000000e+001 -1.950000e+001
      vertex  5.500000e+001  2.000000e+001 -1.950000e+001
      vertex  5.676777e+001 -2.000000e+001 -1.876777e+001
    endloop
  endfacet
  facet normal  3.826831e-001  0.000000e+000 -9.238797e-001
    outer loop
      vertex  5.676777e+001 -2.000000e+001 -1.876777e+001
      vertex  5.500000e+001  2.000000e+001 -1.950000e+001
      vertex  5.676777e+001  2.000000e+001 -1.876777e+001
    endloop
  endfacet
  facet normal  9.238799e-001  0.000000e+000 -3.826826e-001
    outer loop
      vertex  5.676777e+001 -2.000000e+001 -1.876777e+001
      vertex  5.676777e+001  2.000000e+001 -1.876777e+001
      vertex  5.750000e+001 -2.000000e+001 -1.700000e+001
    endloop
  endfacet
  facet normal  9.238799e-001  0.000000e+000 -3.826826e-001
    outer loop
      vertex  5.750000e+001 -2.000000e+001 -1.700000e+001
      vertex  5.676777e+001  2.000000e+001 -1.876777e+001
      vertex  5.750000e+001  2.000000e+001 -1.700000e+001
    endloop
  endfacet
  facet normal  9.124874e-001 -1.565577e-001 -3.779637e-001
    outer loop
      vertex  5.750000e+001 -2.000000e+001 -1.700000e+001
      vertex  5.676777e+001 -2.125000e+001 -1.825000e+001
      vertex  5.676777e+001 -2.000000e+001 -1.876777e+001
    endloop
  endfacet
  facet normal  9.124874e-001 -3.779637e-001 -1.565577e-001
    outer loop
      vertex  5.750000e+001 -2.000000e+001 -1.700000e+001
      vertex  5.676777e+001 -2.176777e+001 -1.700000e+001
      vertex  5.676777e+001 -2.125000e+001 -1.825000e+001
    endloop
  endfacet
  facet normal  3.574064e-001 -8.628564e-001 -3.574068e-001
    outer loop
      vertex  5.676777e+001 -2.176777e+001 -1.700000e+001
      vertex  5.500000e+001 -2.250000e+001 -1.700000e+001
      vertex  5.676777e+001 -2.125000e+001 -1.825000e+001
    endloop
  endfacet
  facet normal  3.574064e-001 -8.628563e-001 -3.574068e-001
    outer loop
      vertex  5.676777e+001 -2.125000e+001 -1.825000e+001
      vertex  5.500000e+001 -2.250000e+001 -1.700000e+001
      vertex  5.500000e+001 -2.176777e+001 -1.876777e+001
    endloop
  endfacet
  facet normal  3.574064e-001 -3.574068e-001 -8.628564e-001
    outer loop
      vertex  5.676777e+001 -2.125000e+001 -1.825000e+001
      vertex  5.500000e+001 -2.176777e+001 -1.876777e+001
      vertex  5.676777e+001 -2.000000e+001 -1.876777e+001
    endloop
  endfacet
  facet normal  3.574064e-001 -3.574068e-001 -8.628563e-001
    outer loop
      vertex  5.676777e+001 -2.000000e+001 -1.876777e+001
      vertex  5.500000e+001 -2.176777e+001 -1.876777e+001
      vertex  5.500000e+001 -2.000000e+001 -1.950000e+001
    endloop
  endfacet
  facet normal -1.000000e+000  -0.000000e+000  0.000000e+000
    outer loop
      vertex -5.750000e+001 -1.973607e+001 -1.561803e+001
      vertex -5.750000e+001 -1.900000e+001 -1.650000e+001
      vertex -5.750000e+001 -2.000000e+001 -1.950000e+001
    endloop
  endfacet
  facet normal -1.000000e+000  0.000000e+000  0.000000e+000
    outer loop
      vertex -5.750000e+001  2.250000e+001 -1.700000e+001
      vertex -5.750000e+001  2.176777e+001 -1.876777e+001
      vertex -5.750000e+001  2.250000e+001  0.000000e+000
    endloop
  endfacet
  facet normal -1.000000e+000  -0.000000e+000  0.000000e+000
    outer loop
      vertex -5.750000e+001 -2.000000e+001 -1.450000e+001
      vertex -5.750000e+001 -1.973607e+001 -1.561803e+001
      vertex -5.750000e+001 -2.000000e+001 -1.950000e+001
    endloop
  endfacet
  facet normal -1.000000e+000  0.000000e+000  0.000000e+000
    outer loop
      vertex -5.750000e+001 -2.000000e+001 -1.450000e+001
      vertex -5.750000e+001 -2.000000e+001 -1.950000e+001
      vertex -5.750000e+001 -2.176777e+001 -1.876777e+001
    endloop
  endfacet
  facet normal -1.000000e+000  0.000000e+000  0.000000e+000
    outer loop
      vertex -5.750000e+001 -2.000000e+001 -1.450000e+001
      vertex -5.750000e+001 -2.176777e+001 -1.876777e+001
      vertex -5.750000e+001 -2.000000e+001  2.500000e+000
    endloop
  endfacet
  facet normal -1.000000e+000  0.000000e+000  0.000000e+000
    outer loop
      vertex -5.750000e+001  2.000000e+001 -1.950000e+001
      vertex -5.750000e+001 -2.000000e+001 -1.950000e+001
      vertex -5.750000e+001 -1.900000e+001 -1.650000e+001
    endloop
  endfacet
  facet normal -1.000000e+000  0.000000e+000  0.000000e+000
    outer loop
      vertex -5.750000e+001  2.000000e+001 -1.950000e+001
      vertex -5.750000e+001 -1.900000e+001 -1.650000e+001
      vertex -5.750000e+001  1.900000e+001 -1.650000e+001
    endloop
  endfacet
  facet normal -1.000000e+000  0.000000e+000  0.000000e+000
    outer loop
      vertex -5.750000e+001  2.000000e+001 -1.950000e+001
      vertex -5.750000e+001  1.900000e+001 -1.650000e+001
      vertex -5.750000e+001  1.973607e+001 -1.561803e+001
    endloop
  endfacet
  facet normal -1.000000e+000  0.000000e+000  0.000000e+000
    outer loop
      vertex -5.750000e+001  2.000000e+001 -1.950000e+001
      vertex -5.750000e+001  1.973607e+001 -1.561803e+001
      vertex -5.750000e+001  2.000000e+001 -1.450000e+001
    endloop
  endfacet
  facet normal -1.000000e+000  0.000000e+000  0.000000e+000
    outer loop
      vertex -5.750000e+001  2.000000e+001 -1.950000e+001
      vertex -5.750000e+001  2.000000e+001 -1.450000e+001
      vertex -5.750000e+001  2.176777e+001 -1.876777e+001
    endloop
  endfacet
  facet normal -1.000000e+000  0.000000e+000  0.000000e+000
    outer loop
      vertex -5.750000e+001 -2.901777e+001  7.322330e-001
      vertex -5.750000e+001 -2.975000e+001  2.500000e+000
      vertex -5.750000e+001 -2.725000e+001  0.000000e+000
    endloop
  endfacet
  facet normal -1.000000e+000  0.000000e+000  0.000000e+000
    outer loop
      vertex -5.750000e+001 -2.725000e+001  0.000000e+000
      vertex -5.750000e+001 -2.975000e+001  2.500000e+000
      vertex -5.750000e+001 -2.000000e+001  2.500000e+000
    endloop
  endfacet
  facet normal -1.000000e+000  0.000000e+000  0.000000e+000
    outer loop
      vertex -5.750000e+001 -2.725000e+001  0.000000e+000
      vertex -5.750000e+001 -2.000000e+001  2.500000e+000
      vertex -5.750000e+001 -2.250000e+001  0.000000e+000
    endloop
  endfacet
  facet normal -1.000000e+000  0.000000e+000  0.000000e+000
    outer loop
      vertex -5.750000e+001 -2.250000e+001  0.000000e+000
      vertex -5.750000e+001 -2.000000e+001  2.500000e+000
      vertex -5.750000e+001 -2.176777e+001 -1.876777e+001
    endloop
  endfacet
  facet normal -1.000000e+000  0.000000e+000  0.000000e+000
    outer loop
      vertex -5.750000e+001 -2.250000e+001  0.000000e+000
      vertex -5.750000e+001 -2.176777e+001 -1.876777e+001
      vertex -5.750000e+001 -2.250000e+001 -1.700000e+001
    endloop
  endfacet
  facet normal -1.000000e+000  0.000000e+000  0.000000e+000
    outer loop
      vertex -5.750000e+001  2.901777e+001  7.322330e-001
      vertex -5.750000e+001  2.725000e+001  0.000000e+000
      vertex -5.750000e+001  2.975000e+001  2.500000e+000
    endloop
  endfacet
  facet normal -1.000000e+000  0.000000e+000  0.000000e+000
    outer loop
      vertex -5.750000e+001  2.975000e+001  2.500000e+000
      vertex -5.750000e+001  2.725000e+001  0.000000e+000
      vertex -5.750000e+001  2.250000e+001  0.000000e+000
    endloop
  endfacet
  facet normal -1.000000e+000  0.000000e+000  0.000000e+000
    outer loop
      vertex -5.750000e+001  2.975000e+001  2.500000e+000
      vertex -5.750000e+001  2.250000e+001  0.000000e+000
      vertex -5.750000e+001  2.000000e+001  2.500000e+000
    endloop
  endfacet
  facet normal -1.000000e+000  0.000000e+000  0.000000e+000
    outer loop
      vertex -5.750000e+001  2.000000e+001  2.500000e+000
      vertex -5.750000e+001  2.250000e+001  0.000000e+000
      vertex -5.750000e+001  2.176777e+001 -1.876777e+001
    endloop
  endfacet
  facet normal -1.000000e+000  0.000000e+000  0.000000e+000
    outer loop
      vertex -5.750000e+001  2.000000e+001  2.500000e+000
      vertex -5.750000e+001  2.176777e+001 -1.876777e+001
      vertex -5.750000e+001  2.000000e+001 -1.450000e+001
    endloop
  endfacet
  facet normal -7.629395e-007  0.000000e+000  9.999999e-001
    outer loop
      vertex -5.750000e+001 -1.900000e+001 -1.650000e+001
      vertex -5.500000e+001 -1.900000e+001 -1.650000e+001
      vertex -5.750000e+001  1.900000e+001 -1.650000e+001
    endloop
  endfacet
  facet normal  -0.000000e+000  5.019339e-008  1.000000e+000
    outer loop
      vertex -5.750000e+001  1.900000e+001 -1.650000e+001
      vertex -5.500000e+001 -1.900000e+001 -1.650000e+001
      vertex -5.500000e+001  1.900000e+001 -1.650000e+001
    endloop
  endfacet
  facet normal  0.000000e+000  0.000000e+000  9.999999e-001
    outer loop
      vertex -5.500000e+001 -1.750000e+001 -1.700000e+001
      vertex  5.500000e+001 -1.750000e+001 -1.700000e+001
      vertex -5.500000e+001  1.750000e+001 -1.700000e+001
    endloop
  endfacet
  facet normal  -0.000000e+000  0.000000e+000  9.999999e-001
    outer loop
      vertex -5.500000e+001  1.750000e+001 -1.700000e+001
      vertex  5.500000e+001 -1.750000e+001 -1.700000e+001
      vertex  5.500000e+001  1.750000e+001 -1.700000e+001
    endloop
  endfacet
  facet normal  1.000000e+000  0.000000e+000  0.000000e+000
    outer loop
      vertex -5.500000e+001  1.750000e+001 -1.700000e+001
      vertex -5.500000e+001  1.900000e+001 -1.650000e+001
      vertex -5.500000e+001 -1.750000e+001 -1.700000e+001
    endloop
  endfacet
  facet normal  1.000000e+000  0.000000e+000  -0.000000e+000
    outer loop
      vertex -5.500000e+001 -1.750000e+001 -1.700000e+001
      vertex -5.500000e+001  1.900000e+001 -1.650000e+001
      vertex -5.500000e+001 -1.900000e+001 -1.650000e+001
    endloop
  endfacet
  facet normal -1.000000e+000  0.000000e+000  0.000000e+000
    outer loop
      vertex  5.500000e+001  2.000000e+001 -1.450000e+001
      vertex  5.500000e+001  1.926777e+001 -1.626777e+001
      vertex  5.500000e+001  2.000000e+001  2.500000e+000
    endloop
  endfacet
  facet normal -1.000000e+000  0.000000e+000  0.000000e+000
    outer loop
      vertex  5.500000e+001  2.000000e+001  2.500000e+000
      vertex  5.500000e+001  1.926777e+001 -1.626777e+001
      vertex  5.500000e+001  1.750000e+001 -1.700000e+001
    endloop
  endfacet
  facet normal -1.000000e+000  0.000000e+000  0.000000e+000
    outer loop
      vertex  5.500000e+001  2.000000e+001  2.500000e+000
      vertex  5.500000e+001  1.750000e+001 -1.700000e+001
      vertex  5.500000e+001 -2.000000e+001  2.500000e+000
    endloop
  endfacet
  facet normal -1.000000e+000  0.000000e+000  0.000000e+000
    outer loop
      vertex  5.500000e+001 -2.000000e+001  2.500000e+000
      vertex  5.500000e+001  1.750000e+001 -1.700000e+001
      vertex  5.500000e+001 -1.750000e+001 -1.700000e+001
    endloop
  endfacet
  facet normal -1.000000e+000  0.000000e+000  0.000000e+000
    outer loop
      vertex  5.500000e+001 -2.000000e+001  2.500000e+000
      vertex  5.500000e+001 -1.750000e+001 -1.700000e+001
      vertex  5.500000e+001 -2.000000e+001 -1.450000e+001
    endloop
  endfacet
  facet normal -1.000000e+000  0.000000e+000  0.000000e+000
    outer loop
      vertex  5.500000e+001 -2.000000e+001 -1.450000e+001
      vertex  5.500000e+001 -1.750000e+001 -1.700000e+001
      vertex  5.500000e+001 -1.926777e+001 -1.626777e+001
    endloop
  endfacet
  facet normal  0.000000e+000  1.000000e+000  0.000000e+000
    outer loop
      vertex  5.500000e+001 -2.000000e+001 -1.450000e+001
      vertex -5.750000e+001 -2.000000e+001 -1.450000e+001
      vertex  5.500000e+001 -2.000000e+001  2.500000e+000
    endloop
  endfacet
  facet normal  0.000000e+000  1.000000e+000  0.000000e+000
    outer loop
      vertex  5.500000e+001 -2.000000e+001  2.500000e+000
      vertex -5.750000e+001 -2.000000e+001 -1.450000e+001
      vertex -5.750000e+001 -2.000000e+001  2.500000e+000
    endloop
  endfacet
  facet normal  0.000000e+000  3.162285e-001  9.486831e-001
    outer loop
      vertex -5.500000e+001 -1.750000e+001 -1.700000e+001
      vertex -5.500000e+001 -1.900000e+001 -1.650000e+001
      vertex  5.500000e+001 -1.750000e+001 -1.700000e+001
    endloop
  endfacet
  facet normal -1.018948e-003  3.826832e-001  9.238790e-001
    outer loop
      vertex  5.500000e+001 -1.750000e+001 -1.700000e+001
      vertex -5.500000e+001 -1.900000e+001 -1.650000e+001
      vertex  5.500000e+001 -1.926777e+001 -1.626777e+001
    endloop
  endfacet
  facet normal -7.651251e-008  6.551834e-001  7.554699e-001
    outer loop
      vertex -5.500000e+001 -1.900000e+001 -1.650000e+001
      vertex -5.750000e+001 -1.900000e+001 -1.650000e+001
      vertex  5.500000e+001 -1.926777e+001 -1.626777e+001
    endloop
  endfacet
  facet normal  5.046716e-004  7.677512e-001  6.407479e-001
    outer loop
      vertex  5.500000e+001 -1.926777e+001 -1.626777e+001
      vertex -5.750000e+001 -1.900000e+001 -1.650000e+001
      vertex -5.750000e+001 -1.973607e+001 -1.561803e+001
    endloop
  endfacet
  facet normal  0.000000e+000  9.732491e-001  2.297522e-001
    outer loop
      vertex -5.750000e+001 -2.000000e+001 -1.450000e+001
      vertex  5.500000e+001 -2.000000e+001 -1.450000e+001
      vertex -5.750000e+001 -1.973607e+001 -1.561803e+001
    endloop
  endfacet
  facet normal -1.635664e-003  9.238783e-001  3.826829e-001
    outer loop
      vertex -5.750000e+001 -1.973607e+001 -1.561803e+001
      vertex  5.500000e+001 -2.000000e+001 -1.450000e+001
      vertex  5.500000e+001 -1.926777e+001 -1.626777e+001
    endloop
  endfacet
  facet normal  0.000000e+000 -1.000000e+000  0.000000e+000
    outer loop
      vertex -5.750000e+001  2.000000e+001 -1.450000e+001
      vertex  5.500000e+001  2.000000e+001 -1.450000e+001
      vertex -5.750000e+001  2.000000e+001  2.500000e+000
    endloop
  endfacet
  facet normal  0.000000e+000 -1.000000e+000  0.000000e+000
    outer loop
      vertex -5.750000e+001  2.000000e+001  2.500000e+000
      vertex  5.500000e+001  2.000000e+001 -1.450000e+001
      vertex  5.500000e+001  2.000000e+001  2.500000e+000
    endloop
  endfacet
  facet normal  0.000000e+000 -9.732491e-001  2.297522e-001
    outer loop
      vertex -5.750000e+001  2.000000e+001 -1.450000e+001
      vertex -5.750000e+001  1.973607e+001 -1.561803e+001
      vertex  5.500000e+001  2.000000e+001 -1.450000e+001
    endloop
  endfacet
  facet normal -1.635665e-003 -9.238783e-001  3.826829e-001
    outer loop
      vertex  5.500000e+001  2.000000e+001 -1.450000e+001
      vertex -5.750000e+001  1.973607e+001 -1.561803e+001
      vertex  5.500000e+001  1.926777e+001 -1.626777e+001
    endloop
  endfacet
  facet normal  5.046715e-004 -7.677512e-001  6.407479e-001
    outer loop
      vertex -5.750000e+001  1.973607e+001 -1.561803e+001
      vertex -5.750000e+001  1.900000e+001 -1.650000e+001
      vertex  5.500000e+001  1.926777e+001 -1.626777e+001
    endloop
  endfacet
  facet normal  0.000000e+000 -6.552006e-001  7.554550e-001
    outer loop
      vertex  5.500000e+001  1.926777e+001 -1.626777e+001
      vertex -5.750000e+001  1.900000e+001 -1.650000e+001
      vertex -5.500000e+001  1.900000e+001 -1.650000e+001
    endloop
  endfacet
  facet normal  0.000000e+000 -3.826834e-001  9.238795e-001
    outer loop
      vertex  5.500000e+001  1.750000e+001 -1.700000e+001
      vertex  5.500000e+001  1.926777e+001 -1.626777e+001
      vertex -5.500000e+001  1.750000e+001 -1.700000e+001
    endloop
  endfacet
  facet normal -1.233093e-003 -3.162275e-001  9.486826e-001
    outer loop
      vertex -5.500000e+001  1.750000e+001 -1.700000e+001
      vertex  5.500000e+001  1.926777e+001 -1.626777e+001
      vertex -5.500000e+001  1.900000e+001 -1.650000e+001
    endloop
  endfacet
  facet normal  3.826840e-001  9.238793e-001  -0.000000e+000
    outer loop
      vertex -5.250000e+001  2.452500e+001  2.500000e+000
      vertex -5.363137e+001  2.499363e+001  0.000000e+000
      vertex -5.363137e+001  2.499363e+001  2.500000e+000
    endloop
  endfacet
  facet normal  9.238798e-001  3.826827e-001  0.000000e+000
    outer loop
      vertex -5.363137e+001  2.499363e+001  2.500000e+000
      vertex -5.363137e+001  2.499363e+001  0.000000e+000
      vertex -5.410000e+001  2.612500e+001  0.000000e+000
    endloop
  endfacet
  facet normal  9.238798e-001  3.826827e-001  -0.000000e+000
    outer loop
      vertex -5.363137e+001  2.499363e+001  2.500000e+000
      vertex -5.410000e+001  2.612500e+001  0.000000e+000
      vertex -5.410000e+001  2.612500e+001  2.500000e+000
    endloop
  endfacet
  facet normal  3.826840e-001  9.238793e-001  0.000000e+000
    outer loop
      vertex -5.363137e+001  2.499363e+001  0.000000e+000
      vertex -5.250000e+001  2.452500e+001  2.500000e+000
      vertex -5.250000e+001  2.452500e+001  0.000000e+000
    endloop
  endfacet
  facet normal -3.826840e-001  9.238793e-001  0.000000e+000
    outer loop
      vertex -5.250000e+001  2.452500e+001  0.000000e+000
      vertex -5.250000e+001  2.452500e+001  2.500000e+000
      vertex -5.136863e+001  2.499363e+001  2.500000e+000
    endloop
  endfacet
  facet normal -3.826840e-001  9.238793e-001  0.000000e+000
    outer loop
      vertex -5.250000e+001  2.452500e+001  0.000000e+000
      vertex -5.136863e+001  2.499363e+001  2.500000e+000
      vertex -5.136863e+001  2.499363e+001  0.000000e+000
    endloop
  endfacet
  facet normal -9.238798e-001  3.826827e-001  0.000000e+000
    outer loop
      vertex -5.136863e+001  2.499363e+001  0.000000e+000
      vertex -5.136863e+001  2.499363e+001  2.500000e+000
      vertex -5.090000e+001  2.612500e+001  2.500000e+000
    endloop
  endfacet
  facet normal -9.238798e-001  3.826827e-001  0.000000e+000
    outer loop
      vertex -5.136863e+001  2.499363e+001  0.000000e+000
      vertex -5.090000e+001  2.612500e+001  2.500000e+000
      vertex -5.090000e+001  2.612500e+001  0.000000e+000
    endloop
  endfacet
  facet normal -3.824739e-001 -9.233720e-001 -3.313209e-002
    outer loop
      vertex -5.223275e+001  2.770252e+001  4.129634e-002
      vertex -5.136863e+001  2.725637e+001  2.500000e+000
      vertex -5.250000e+001  2.772500e+001  2.500000e+000
    endloop
  endfacet
  facet normal -7.193049e-003 -9.999391e-001  8.359838e-003
    outer loop
      vertex -5.250000e+001  2.772500e+001  2.500000e+000
      vertex -5.274449e+001  2.770621e+001  4.197796e-002
      vertex -5.223275e+001  2.770252e+001  4.129634e-002
    endloop
  endfacet
  facet normal  3.825003e-001 -9.234357e-001 -3.098596e-002
    outer loop
      vertex -5.274449e+001  2.770621e+001  4.197796e-002
      vertex -5.250000e+001  2.772500e+001  2.500000e+000
      vertex -5.363137e+001  2.725637e+001  2.500000e+000
    endloop
  endfacet
  facet normal -4.612208e-001 -8.872848e-001  1.092037e-003
    outer loop
      vertex -5.223275e+001  2.770252e+001  4.129634e-002
      vertex -5.136229e+001  2.725000e+001 -2.220446e-016
      vertex -5.136863e+001  2.725637e+001  2.500000e+000
    endloop
  endfacet
  facet normal -9.249501e-001 -3.800860e-001 -1.375730e-003
    outer loop
      vertex -5.136863e+001  2.725637e+001  2.500000e+000
      vertex -5.136229e+001  2.725000e+001 -2.220446e-016
      vertex -5.090000e+001  2.612500e+001  0.000000e+000
    endloop
  endfacet
  facet normal -9.238798e-001 -3.826827e-001  0.000000e+000
    outer loop
      vertex -5.136863e+001  2.725637e+001  2.500000e+000
      vertex -5.090000e+001  2.612500e+001  0.000000e+000
      vertex -5.090000e+001  2.612500e+001  2.500000e+000
    endloop
  endfacet
  facet normal  4.548123e-001 -8.905866e-001  1.116694e-003
    outer loop
      vertex -5.274449e+001  2.770621e+001  4.197796e-002
      vertex -5.363137e+001  2.725637e+001  2.500000e+000
      vertex -5.363771e+001  2.725000e+001  2.220446e-016
    endloop
  endfacet
  facet normal  9.238790e-001 -3.826823e-001 -1.366399e-003
    outer loop
      vertex -5.363771e+001  2.725000e+001  2.220446e-016
      vertex -5.363137e+001  2.725637e+001  2.500000e+000
      vertex -5.410000e+001  2.612500e+001  2.500000e+000
    endloop
  endfacet
  facet normal  9.249510e-001 -3.800864e-001  0.000000e+000
    outer loop
      vertex -5.363771e+001  2.725000e+001  2.220446e-016
      vertex -5.410000e+001  2.612500e+001  2.500000e+000
      vertex -5.410000e+001  2.612500e+001  0.000000e+000
    endloop
  endfacet
  facet normal -3.824739e-001 -9.233720e-001 -3.313209e-002
    outer loop
      vertex  5.276725e+001  2.770252e+001  4.129634e-002
      vertex  5.363137e+001  2.725637e+001  2.500000e+000
      vertex  5.250000e+001  2.772500e+001  2.500000e+000
    endloop
  endfacet
  facet normal -7.193049e-003 -9.999391e-001  8.359838e-003
    outer loop
      vertex  5.250000e+001  2.772500e+001  2.500000e+000
      vertex  5.225551e+001  2.770621e+001  4.197796e-002
      vertex  5.276725e+001  2.770252e+001  4.129634e-002
    endloop
  endfacet
  facet normal  3.825003e-001 -9.234357e-001 -3.098596e-002
    outer loop
      vertex  5.225551e+001  2.770621e+001  4.197796e-002
      vertex  5.250000e+001  2.772500e+001  2.500000e+000
      vertex  5.136863e+001  2.725637e+001  2.500000e+000
    endloop
  endfacet
  facet normal -4.612208e-001 -8.872848e-001  1.092037e-003
    outer loop
      vertex  5.276725e+001  2.770252e+001  4.129634e-002
      vertex  5.363771e+001  2.725000e+001  0.000000e+000
      vertex  5.363137e+001  2.725637e+001  2.500000e+000
    endloop
  endfacet
  facet normal -9.249501e-001 -3.800860e-001 -1.375730e-003
    outer loop
      vertex  5.363137e+001  2.725637e+001  2.500000e+000
      vertex  5.363771e+001  2.725000e+001  0.000000e+000
      vertex  5.410000e+001  2.612500e+001  0.000000e+000
    endloop
  endfacet
  facet normal -9.238798e-001 -3.826827e-001  0.000000e+000
    outer loop
      vertex  5.363137e+001  2.725637e+001  2.500000e+000
      vertex  5.410000e+001  2.612500e+001  0.000000e+000
      vertex  5.410000e+001  2.612500e+001  2.500000e+000
    endloop
  endfacet
  facet normal  4.548123e-001 -8.905866e-001  1.116694e-003
    outer loop
      vertex  5.225551e+001  2.770621e+001  4.197796e-002
      vertex  5.136863e+001  2.725637e+001  2.500000e+000
      vertex  5.136229e+001  2.725000e+001  2.220446e-016
    endloop
  endfacet
  facet normal  9.238790e-001 -3.826823e-001 -1.366399e-003
    outer loop
      vertex  5.136229e+001  2.725000e+001  2.220446e-016
      vertex  5.136863e+001  2.725637e+001  2.500000e+000
      vertex  5.090000e+001  2.612500e+001  2.500000e+000
    endloop
  endfacet
  facet normal  9.249510e-001 -3.800864e-001  0.000000e+000
    outer loop
      vertex  5.136229e+001  2.725000e+001  2.220446e-016
      vertex  5.090000e+001  2.612500e+001  2.500000e+000
      vertex  5.090000e+001  2.612500e+001  0.000000e+000
    endloop
  endfacet
  facet normal  3.826840e-001  9.238793e-001  -0.000000e+000
    outer loop
      vertex  5.250000e+001  2.452500e+001  2.500000e+000
      vertex  5.136863e+001  2.499363e+001  0.000000e+000
      vertex  5.136863e+001  2.499363e+001  2.500000e+000
    endloop
  endfacet
  facet normal  9.238798e-001  3.826827e-001  0.000000e+000
    outer loop
      vertex  5.136863e+001  2.499363e+001  2.500000e+000
      vertex  5.136863e+001  2.499363e+001  0.000000e+000
      vertex  5.090000e+001  2.612500e+001  0.000000e+000
    endloop
  endfacet
  facet normal  9.238798e-001  3.826827e-001  -0.000000e+000
    outer loop
      vertex  5.136863e+001  2.499363e+001  2.500000e+000
      vertex  5.090000e+001  2.612500e+001  0.000000e+000
      vertex  5.090000e+001  2.612500e+001  2.500000e+000
    endloop
  endfacet
  facet normal  3.826840e-001  9.238793e-001  0.000000e+000
    outer loop
      vertex  5.136863e+001  2.499363e+001  0.000000e+000
      vertex  5.250000e+001  2.452500e+001  2.500000e+000
      vertex  5.250000e+001  2.452500e+001  0.000000e+000
    endloop
  endfacet
  facet normal -3.826840e-001  9.238793e-001  0.000000e+000
    outer loop
      vertex  5.250000e+001  2.452500e+001  0.000000e+000
      vertex  5.250000e+001  2.452500e+001  2.500000e+000
      vertex  5.363137e+001  2.499363e+001  2.500000e+000
    endloop
  endfacet
  facet normal -3.826840e-001  9.238793e-001  0.000000e+000
    outer loop
      vertex  5.250000e+001  2.452500e+001  0.000000e+000
      vertex  5.363137e+001  2.499363e+001  2.500000e+000
      vertex  5.363137e+001  2.499363e+001  0.000000e+000
    endloop
  endfacet
  facet normal -9.238798e-001  3.826827e-001  0.000000e+000
    outer loop
      vertex  5.363137e+001  2.499363e+001  0.000000e+000
      vertex  5.363137e+001  2.499363e+001  2.500000e+000
      vertex  5.410000e+001  2.612500e+001  2.500000e+000
    endloop
  endfacet
  facet normal -9.238798e-001  3.826827e-001  0.000000e+000
    outer loop
      vertex  5.363137e+001  2.499363e+001  0.000000e+000
      vertex  5.410000e+001  2.612500e+001  2.500000e+000
      vertex  5.410000e+001  2.612500e+001  0.000000e+000
    endloop
  endfacet
  facet normal -3.826840e-001 -9.238793e-001  0.000000e+000
    outer loop
      vertex  5.250000e+001 -2.452500e+001  2.500000e+000
      vertex  5.363137e+001 -2.499363e+001  0.000000e+000
      vertex  5.363137e+001 -2.499363e+001  2.500000e+000
    endloop
  endfacet
  facet normal -9.238798e-001 -3.826827e-001  -0.000000e+000
    outer loop
      vertex  5.363137e+001 -2.499363e+001  2.500000e+000
      vertex  5.363137e+001 -2.499363e+001  0.000000e+000
      vertex  5.410000e+001 -2.612500e+001  0.000000e+000
    endloop
  endfacet
  facet normal -9.238798e-001 -3.826827e-001  0.000000e+000
    outer loop
      vertex  5.363137e+001 -2.499363e+001  2.500000e+000
      vertex  5.410000e+001 -2.612500e+001  0.000000e+000
      vertex  5.410000e+001 -2.612500e+001  2.500000e+000
    endloop
  endfacet
  facet normal -3.826840e-001 -9.238793e-001  -0.000000e+000
    outer loop
      vertex  5.363137e+001 -2.499363e+001  0.000000e+000
      vertex  5.250000e+001 -2.452500e+001  2.500000e+000
      vertex  5.250000e+001 -2.452500e+001  0.000000e+000
    endloop
  endfacet
  facet normal  3.826840e-001 -9.238793e-001  0.000000e+000
    outer loop
      vertex  5.250000e+001 -2.452500e+001  0.000000e+000
      vertex  5.250000e+001 -2.452500e+001  2.500000e+000
      vertex  5.136863e+001 -2.499363e+001  2.500000e+000
    endloop
  endfacet
  facet normal  3.826840e-001 -9.238793e-001  0.000000e+000
    outer loop
      vertex  5.250000e+001 -2.452500e+001  0.000000e+000
      vertex  5.136863e+001 -2.499363e+001  2.500000e+000
      vertex  5.136863e+001 -2.499363e+001  0.000000e+000
    endloop
  endfacet
  facet normal  9.238798e-001 -3.826827e-001  0.000000e+000
    outer loop
      vertex  5.136863e+001 -2.499363e+001  0.000000e+000
      vertex  5.136863e+001 -2.499363e+001  2.500000e+000
      vertex  5.090000e+001 -2.612500e+001  2.500000e+000
    endloop
  endfacet
  facet normal  9.238798e-001 -3.826827e-001  0.000000e+000
    outer loop
      vertex  5.136863e+001 -2.499363e+001  0.000000e+000
      vertex  5.090000e+001 -2.612500e+001  2.500000e+000
      vertex  5.090000e+001 -2.612500e+001  0.000000e+000
    endloop
  endfacet
  facet normal  3.824739e-001  9.233720e-001 -3.313209e-002
    outer loop
      vertex  5.223275e+001 -2.770252e+001  4.129634e-002
      vertex  5.136863e+001 -2.725637e+001  2.500000e+000
      vertex  5.250000e+001 -2.772500e+001  2.500000e+000
    endloop
  endfacet
  facet normal  7.193049e-003  9.999391e-001  8.359838e-003
    outer loop
      vertex  5.250000e+001 -2.772500e+001  2.500000e+000
      vertex  5.274449e+001 -2.770621e+001  4.197796e-002
      vertex  5.223275e+001 -2.770252e+001  4.129634e-002
    endloop
  endfacet
  facet normal -3.825003e-001  9.234357e-001 -3.098596e-002
    outer loop
      vertex  5.274449e+001 -2.770621e+001  4.197796e-002
      vertex  5.250000e+001 -2.772500e+001  2.500000e+000
      vertex  5.363137e+001 -2.725637e+001  2.500000e+000
    endloop
  endfacet
  facet normal  4.612208e-001  8.872848e-001  1.092037e-003
    outer loop
      vertex  5.223275e+001 -2.770252e+001  4.129634e-002
      vertex  5.136229e+001 -2.725000e+001  0.000000e+000
      vertex  5.136863e+001 -2.725637e+001  2.500000e+000
    endloop
  endfacet
  facet normal  9.249501e-001  3.800860e-001 -1.375730e-003
    outer loop
      vertex  5.136863e+001 -2.725637e+001  2.500000e+000
      vertex  5.136229e+001 -2.725000e+001  0.000000e+000
      vertex  5.090000e+001 -2.612500e+001  0.000000e+000
    endloop
  endfacet
  facet normal  9.238798e-001  3.826827e-001  -0.000000e+000
    outer loop
      vertex  5.136863e+001 -2.725637e+001  2.500000e+000
      vertex  5.090000e+001 -2.612500e+001  0.000000e+000
      vertex  5.090000e+001 -2.612500e+001  2.500000e+000
    endloop
  endfacet
  facet normal -4.548123e-001  8.905866e-001  1.116694e-003
    outer loop
      vertex  5.274449e+001 -2.770621e+001  4.197796e-002
      vertex  5.363137e+001 -2.725637e+001  2.500000e+000
      vertex  5.363771e+001 -2.725000e+001  2.220446e-016
    endloop
  endfacet
  facet normal -9.238790e-001  3.826823e-001 -1.366399e-003
    outer loop
      vertex  5.363771e+001 -2.725000e+001  2.220446e-016
      vertex  5.363137e+001 -2.725637e+001  2.500000e+000
      vertex  5.410000e+001 -2.612500e+001  2.500000e+000
    endloop
  endfacet
  facet normal -9.249510e-001  3.800864e-001  0.000000e+000
    outer loop
      vertex  5.363771e+001 -2.725000e+001  2.220446e-016
      vertex  5.410000e+001 -2.612500e+001  2.500000e+000
      vertex  5.410000e+001 -2.612500e+001  0.000000e+000
    endloop
  endfacet
  facet normal  3.824739e-001  9.233720e-001 -3.313209e-002
    outer loop
      vertex -5.276725e+001 -2.770252e+001  4.129634e-002
      vertex -5.363137e+001 -2.725637e+001  2.500000e+000
      vertex -5.250000e+001 -2.772500e+001  2.500000e+000
    endloop
  endfacet
  facet normal  7.193049e-003  9.999391e-001  8.359838e-003
    outer loop
      vertex -5.250000e+001 -2.772500e+001  2.500000e+000
      vertex -5.225551e+001 -2.770621e+001  4.197796e-002
      vertex -5.276725e+001 -2.770252e+001  4.129634e-002
    endloop
  endfacet
  facet normal -3.825003e-001  9.234357e-001 -3.098596e-002
    outer loop
      vertex -5.225551e+001 -2.770621e+001  4.197796e-002
      vertex -5.250000e+001 -2.772500e+001  2.500000e+000
      vertex -5.136863e+001 -2.725637e+001  2.500000e+000
    endloop
  endfacet
  facet normal  4.612208e-001  8.872848e-001  1.092037e-003
    outer loop
      vertex -5.276725e+001 -2.770252e+001  4.129634e-002
      vertex -5.363771e+001 -2.725000e+001  0.000000e+000
      vertex -5.363137e+001 -2.725637e+001  2.500000e+000
    endloop
  endfacet
  facet normal  9.249501e-001  3.800860e-001 -1.375730e-003
    outer loop
      vertex -5.363137e+001 -2.725637e+001  2.500000e+000
      vertex -5.363771e+001 -2.725000e+001  0.000000e+000
      vertex -5.410000e+001 -2.612500e+001  0.000000e+000
    endloop
  endfacet
  facet normal  9.238798e-001  3.826827e-001  -0.000000e+000
    outer loop
      vertex -5.363137e+001 -2.725637e+001  2.500000e+000
      vertex -5.410000e+001 -2.612500e+001  0.000000e+000
      vertex -5.410000e+001 -2.612500e+001  2.500000e+000
    endloop
  endfacet
  facet normal -4.548123e-001  8.905866e-001  1.116694e-003
    outer loop
      vertex -5.225551e+001 -2.770621e+001  4.197796e-002
      vertex -5.136863e+001 -2.725637e+001  2.500000e+000
      vertex -5.136229e+001 -2.725000e+001  2.220446e-016
    endloop
  endfacet
  facet normal -9.238790e-001  3.826823e-001 -1.366399e-003
    outer loop
      vertex -5.136229e+001 -2.725000e+001  2.220446e-016
      vertex -5.136863e+001 -2.725637e+001  2.500000e+000
      vertex -5.090000e+001 -2.612500e+001  2.500000e+000
    endloop
  endfacet
  facet normal -9.249510e-001  3.800864e-001  0.000000e+000
    outer loop
      vertex -5.136229e+001 -2.725000e+001  2.220446e-016
      vertex -5.090000e+001 -2.612500e+001  2.500000e+000
      vertex -5.090000e+001 -2.612500e+001  0.000000e+000
    endloop
  endfacet
  facet normal -3.826840e-001 -9.238793e-001  0.000000e+000
    outer loop
      vertex -5.250000e+001 -2.452500e+001  2.500000e+000
      vertex -5.136863e+001 -2.499363e+001  0.000000e+000
      vertex -5.136863e+001 -2.499363e+001  2.500000e+000
    endloop
  endfacet
  facet normal -9.238798e-001 -3.826827e-001  -0.000000e+000
    outer loop
      vertex -5.136863e+001 -2.499363e+001  2.500000e+000
      vertex -5.136863e+001 -2.499363e+001  0.000000e+000
      vertex -5.090000e+001 -2.612500e+001  0.000000e+000
    endloop
  endfacet
  facet normal -9.238798e-001 -3.826827e-001  0.000000e+000
    outer loop
      vertex -5.136863e+001 -2.499363e+001  2.500000e+000
      vertex -5.090000e+001 -2.612500e+001  0.000000e+000
      vertex -5.090000e+001 -2.612500e+001  2.500000e+000
    endloop
  endfacet
  facet normal -3.826840e-001 -9.238793e-001  -0.000000e+000
    outer loop
      vertex -5.136863e+001 -2.499363e+001  0.000000e+000
      vertex -5.250000e+001 -2.452500e+001  2.500000e+000
      vertex -5.250000e+001 -2.452500e+001  0.000000e+000
    endloop
  endfacet
  facet normal  3.826840e-001 -9.238793e-001  0.000000e+000
    outer loop
      vertex -5.250000e+001 -2.452500e+001  0.000000e+000
      vertex -5.250000e+001 -2.452500e+001  2.500000e+000
      vertex -5.363137e+001 -2.499363e+001  2.500000e+000
    endloop
  endfacet
  facet normal  3.826840e-001 -9.238793e-001  0.000000e+000
    outer loop
      vertex -5.250000e+001 -2.452500e+001  0.000000e+000
      vertex -5.363137e+001 -2.499363e+001  2.500000e+000
      vertex -5.363137e+001 -2.499363e+001  0.000000e+000
    endloop
  endfacet
  facet normal  9.238798e-001 -3.826827e-001  0.000000e+000
    outer loop
      vertex -5.363137e+001 -2.499363e+001  0.000000e+000
      vertex -5.363137e+001 -2.499363e+001  2.500000e+000
      vertex -5.410000e+001 -2.612500e+001  2.500000e+000
    endloop
  endfacet
  facet normal  9.238798e-001 -3.826827e-001  0.000000e+000
    outer loop
      vertex -5.363137e+001 -2.499363e+001  0.000000e+000
      vertex -5.410000e+001 -2.612500e+001  2.500000e+000
      vertex -5.410000e+001 -2.612500e+001  0.000000e+000
    endloop
  endfacet
endsolid CATIA STL
